HIERARCHY
ROOT Hips
{
	OFFSET 0.00 0.00 0.00
	CHANNELS 6 Xposition Yposition Zposition Xrotation Yrotation Zrotation
	JOINT RightUpLeg
	{
		OFFSET -3.76699 0.00000 0.00000
		CHANNELS 3 Xrotation Yrotation Zrotation
		JOINT RightLeg
		{
			OFFSET 0.00000 -18.01768 0.00000
			CHANNELS 3 Xrotation Yrotation Zrotation
			JOINT RightFoot
			{
				OFFSET 0.00000 -16.88108 0.00000
				CHANNELS 3 Xrotation Yrotation Zrotation
				JOINT RightToeBase
				{
					OFFSET 0.00000 -1.49359 5.57418
					CHANNELS 3 Xrotation Yrotation Zrotation
					End Site
					{
						OFFSET 0.00000 0.00000 2.95275
					}
				}
			}
		}
	}
	JOINT LeftUpLeg
	{
		OFFSET 3.76699 0.00000 0.00000
		CHANNELS 3 Xrotation Yrotation Zrotation
		JOINT LeftLeg
		{
			OFFSET 0.00000 -18.01768 0.00000
			CHANNELS 3 Xrotation Yrotation Zrotation
			JOINT LeftFoot
			{
				OFFSET 0.00000 -16.88108 0.00000
				CHANNELS 3 Xrotation Yrotation Zrotation
				JOINT LeftToeBase
				{
					OFFSET 0.00000 -1.49359 5.57418
					CHANNELS 3 Xrotation Yrotation Zrotation
					End Site
					{
						OFFSET 0.00000 0.00000 2.95275
					}
				}
			}
		}
	}
	JOINT Spine
	{
		OFFSET 0.00000 7.77970 0.00000
		CHANNELS 3 Xrotation Yrotation Zrotation
		JOINT RightShoulder
		{
			OFFSET 0.00000 10.94176 0.00000
			CHANNELS 3 Xrotation Yrotation Zrotation
			JOINT RightArm
			{
				OFFSET -7.70894 0.00000 0.00000
				CHANNELS 3 Xrotation Yrotation Zrotation
				JOINT RightForeArm
				{
					OFFSET -11.52135 0.00000 0.00000
					CHANNELS 3 Yrotation Zrotation Xrotation
					JOINT RightHand
					{
						OFFSET -10.17590 0.00000 0.00000
						CHANNELS 3 Xrotation Yrotation Zrotation
						End Site
						{
							OFFSET -3.93700 0.00000 0.00000
						}
						JOINT RightHandThumb1
						{
							OFFSET 0.00000 0.00000 0.00000
							CHANNELS 3 Xrotation Zrotation Yrotation
							End Site
							{
								OFFSET 0.00000 0.00000 3.93700
							}
						}
					}
				}
			}
		}
		JOINT LeftShoulder
		{
			OFFSET 0.00000 10.94176 0.00000
			CHANNELS 3 Xrotation Yrotation Zrotation
			JOINT LeftArm
			{
				OFFSET 7.70894 0.00000 0.00000
				CHANNELS 3 Xrotation Yrotation Zrotation
				JOINT LeftForeArm
				{
					OFFSET 11.52135 0.00000 0.00000
					CHANNELS 3 Yrotation Zrotation Xrotation
					JOINT LeftHand
					{
						OFFSET 10.17590 0.00000 0.00000
						CHANNELS 3 Xrotation Yrotation Zrotation
						End Site
						{
							OFFSET 3.93700 0.00000 0.00000
						}
						JOINT LeftHandThumb1
						{
							OFFSET 0.00000 0.00000 0.00000
							CHANNELS 3 Xrotation Zrotation Yrotation
							End Site
							{
								OFFSET 0.00000 0.00000 3.93700
							}
						}
					}
				}
			}
		}
		JOINT Head
		{
			OFFSET 0.00000 16.64604 0.00000
			CHANNELS 3 Xrotation Yrotation Zrotation
			End Site
			{
				OFFSET 0.00000 4.52755 0.00000
			}
		}
	}
}
MOTION
Frames:	15
Frame Time: 0.008333
-2.5291 37.0450 2.6269 -1.9607 5.7233 -1.7359 8.3060 -3.6767 -0.0439 -2.1349 0.0000 -0.0000 -6.5730 -20.2715 10.0134 9.5047 -0.0000 -0.0000 8.4836 4.6421 3.9491 -4.7342 0.0000 -0.0000 -8.4126 19.8394 -7.6060 14.8329 -0.0000 -0.0000 5.1765 2.1175 2.4025 25.5800 -31.0050 -13.3310 -65.3008 -3.4348 33.6171 5.2518 0.0000 45.3793 1.9471 -21.5307 5.2925 33.1476 -0.0000 -26.2537 11.4422 8.9441 23.8155 -28.9752 5.0742 -31.8004 -20.2676 0.0000 -13.6447 -0.3062 2.5828 6.7634 32.8623 0.0000 24.3270 -4.3800 -12.0647 -5.1924
-2.5290 37.0447 2.6284 -1.9627 5.7284 -1.7587 8.3153 -3.6750 -0.0205 -2.1401 0.0000 -0.0000 -6.5649 -20.2807 10.0396 9.5165 -0.0000 -0.0000 8.4841 4.6334 3.9659 -4.7332 0.0000 -0.0000 -8.4375 19.8650 -7.5353 14.8263 -0.0000 -0.0000 5.1416 2.1132 2.4625 25.6029 -31.0335 -13.3751 -65.4562 -3.6094 33.7120 5.4607 0.0000 45.1322 1.8708 -21.6394 5.0619 33.1476 -0.0000 -26.2537 11.4590 8.8781 23.6708 -29.0878 5.2890 -31.7336 -20.6411 0.0000 -14.1025 -0.2946 2.4748 6.7900 32.8623 0.0000 24.3270 -4.3131 -11.4557 -5.0440
-2.5297 37.0449 2.6298 -1.9672 5.7319 -1.7574 8.3207 -3.6787 -0.0180 -2.1382 0.0000 -0.0000 -6.5653 -20.2898 10.0162 9.4960 -0.0000 -0.0000 8.4894 4.6104 3.9692 -4.7286 0.0000 -0.0000 -8.4368 19.8732 -7.5308 14.8406 -0.0000 -0.0000 5.1316 2.1246 2.4332 25.6196 -31.0083 -13.2888 -65.6156 -3.7511 33.7220 5.6815 0.0000 44.8830 1.7624 -21.6156 4.7745 33.1476 -0.0000 -26.2537 11.4763 8.8962 23.6115 -29.3633 5.6170 -31.7617 -21.2271 0.0000 -14.6840 -0.2970 2.4911 6.8016 32.8623 0.0000 24.3270 -4.3182 -11.4333 -4.9955
-2.5329 37.0452 2.6326 -1.9843 5.7376 -1.7409 8.3443 -3.6833 -0.0210 -2.1386 0.0000 -0.0000 -6.5808 -20.3331 10.0608 9.5241 -0.0000 -0.0000 8.5067 4.6221 3.9669 -4.7198 0.0000 -0.0000 -8.4119 19.8313 -7.5857 14.7789 -0.0000 -0.0000 5.1593 2.1418 2.3341 25.5758 -30.9377 -13.1051 -65.7306 -3.8167 33.6907 5.8792 0.0000 44.2961 1.5191 -21.5380 4.1317 33.1476 -0.0000 -26.2537 11.4202 8.9450 23.6340 -29.7162 6.0471 -31.8737 -21.9679 0.0000 -15.3388 -0.3004 2.4591 6.9660 32.8623 0.0000 24.3270 -4.3980 -12.0538 -5.0881
-2.5341 37.0454 2.6348 -2.0050 5.7589 -1.7366 8.3751 -3.6923 -0.0221 -2.1481 0.0000 -0.0000 -6.5775 -20.3086 10.0219 9.5047 -0.0000 -0.0000 8.5225 4.5819 3.9650 -4.7094 0.0000 -0.0000 -8.4285 19.8697 -7.5439 14.8178 -0.0000 -0.0000 5.1698 2.1410 2.2947 25.5524 -30.9252 -12.9700 -65.9731 -3.9471 33.7368 6.1391 0.0000 43.6186 1.2637 -21.6827 3.4168 33.1476 -0.0000 -26.2537 11.4057 8.9230 23.5339 -30.0215 6.4904 -31.8680 -22.7731 -0.0000 -16.3492 -0.2896 2.3232 7.1083 32.8623 0.0000 24.3270 -4.4174 -12.1205 -5.0633
-2.5347 37.0459 2.6354 -1.9927 5.7718 -1.7379 8.3586 -3.7266 -0.0183 -2.1343 0.0000 -0.0000 -6.5809 -20.2989 10.0545 9.5135 -0.0000 -0.0000 8.5110 4.5230 3.9703 -4.7059 0.0000 -0.0000 -8.4281 19.8929 -7.5018 14.7988 -0.0000 -0.0000 5.1325 2.1413 2.2639 25.4898 -30.9140 -12.8638 -66.2233 -4.1800 33.8219 6.5543 0.0000 42.8779 0.8944 -21.8794 2.3988 33.1476 -0.0000 -26.2537 11.4425 8.9493 23.4113 -30.3959 6.9598 -31.9084 -23.7329 0.0000 -17.4109 -0.2927 2.2885 7.2898 32.8623 0.0000 24.3270 -4.3986 -12.1166 -4.9951
-2.5373 37.0472 2.6320 -1.9990 5.7691 -1.7348 8.3464 -3.7168 -0.0176 -2.1109 0.0000 -0.0000 -6.5820 -20.3100 10.0437 9.5349 -0.0000 -0.0000 8.4900 4.5300 3.9701 -4.6650 0.0000 -0.0000 -8.4276 19.9034 -7.5273 14.7913 -0.0000 -0.0000 5.1376 2.1631 2.2138 25.5016 -30.9236 -12.6680 -66.5892 -4.3931 33.9318 7.0207 0.0000 41.9974 0.5850 -22.0592 1.5573 33.1476 -0.0000 -26.2537 11.4563 8.9717 23.2771 -30.7779 7.4100 -31.9551 -24.7383 -0.0000 -18.5333 -0.2854 2.0839 7.8008 32.8623 0.0000 24.3270 -4.4027 -12.1307 -4.9142
-2.5382 37.0472 2.6308 -1.9942 5.7995 -1.7362 8.3397 -3.7480 -0.0112 -2.1017 0.0000 -0.0000 -6.5947 -20.3099 10.0415 9.5972 -0.0000 -0.0000 8.4723 4.4698 3.9809 -4.6455 0.0000 -0.0000 -8.4468 19.9241 -7.5471 14.8154 -0.0000 -0.0000 5.1121 2.1608 2.1744 25.5415 -30.9277 -12.4570 -66.9661 -4.6635 34.0377 7.6163 0.0000 40.9156 0.2430 -22.3516 0.6389 33.1476 -0.0000 -26.2537 11.5622 9.0346 23.1170 -31.1522 7.7837 -32.0274 -25.8167 0.0000 -19.8400 -0.2591 1.7820 8.2730 32.8623 0.0000 24.3270 -4.3801 -12.1371 -4.8232
-2.5404 37.0486 2.6342 -2.0292 5.8237 -1.7376 8.3841 -3.7982 0.0018 -2.1032 0.0000 -0.0000 -6.5836 -20.2893 10.0696 9.5483 -0.0000 -0.0000 8.5027 4.4452 3.9935 -4.6321 0.0000 -0.0000 -8.4320 19.9087 -7.5252 14.7455 -0.0000 -0.0000 5.1208 2.1710 2.1247 25.4520 -30.9129 -12.3099 -67.2729 -5.0240 34.1916 8.3568 -0.0000 39.6548 -0.0229 -22.4595 -0.0600 33.1476 -0.0000 -26.2537 11.7289 9.1266 22.9363 -31.4800 8.0922 -32.1280 -27.0182 0.0000 -21.2921 -0.2207 1.4088 8.9028 32.8623 0.0000 24.3270 -4.3225 -12.1446 -4.7052
-2.5428 37.0485 2.6359 -2.0576 5.8501 -1.7372 8.4155 -3.8199 0.0176 -2.0945 0.0000 -0.0000 -6.5973 -20.3271 10.0660 9.5915 -0.0000 -0.0000 8.5247 4.4082 4.0090 -4.6144 0.0000 -0.0000 -8.4497 19.8961 -7.5246 14.7518 -0.0000 -0.0000 5.1320 2.1967 2.0727 25.4723 -30.9571 -12.0619 -67.7064 -5.3737 34.3883 9.1736 -0.0000 38.1547 -0.3187 -22.7391 -0.8243 33.1476 -0.0000 -26.2537 11.9228 9.2496 22.7595 -31.7483 8.3030 -32.2979 -28.3005 0.0000 -22.8588 -0.1753 1.0372 9.5929 32.8623 0.0000 24.3270 -4.3056 -12.2227 -4.6298
-2.5455 37.0499 2.6346 -2.0771 5.8743 -1.7306 8.4275 -3.8504 0.0163 -2.0814 0.0000 -0.0000 -6.5885 -20.2988 10.0550 9.5514 -0.0000 -0.0000 8.5016 4.4207 4.0132 -4.5431 0.0000 -0.0000 -8.4702 19.8492 -7.5263 14.7678 -0.0000 -0.0000 5.1324 2.2379 2.0042 25.3608 -30.9012 -11.8821 -67.9359 -5.8370 34.5149 10.1775 0.0000 36.3301 -0.5700 -22.8963 -1.4646 33.1476 -0.0000 -26.2537 12.1393 9.3539 22.5816 -31.9851 8.5015 -32.4912 -29.6710 0.0000 -24.2378 -0.1170 0.6534 10.1562 32.8623 0.0000 24.3270 -4.2683 -12.3078 -4.5206
-2.5479 37.0506 2.6355 -2.0968 5.9088 -1.7281 8.4516 -3.8839 0.0251 -2.0780 0.0000 -0.0000 -6.5989 -20.3045 10.0502 9.5500 -0.0000 -0.0000 8.5101 4.3679 4.0240 -4.5222 0.0000 -0.0000 -8.4751 19.8612 -7.5299 14.7839 -0.0000 -0.0000 5.1206 2.2620 1.9424 25.4447 -30.9057 -11.6122 -68.4307 -6.3836 34.7131 11.2495 -0.0000 34.3612 -0.7676 -22.9632 -1.9669 33.1476 -0.0000 -26.2537 12.3732 9.4483 22.3880 -32.1559 8.7084 -32.7053 -31.1662 -0.0000 -25.4819 -0.0471 0.2535 10.5258 32.8623 0.0000 24.3270 -4.2005 -12.3614 -4.4008
-2.5505 37.0515 2.6335 -2.1108 5.9248 -1.7341 8.4525 -3.8990 0.0389 -2.0527 0.0000 -0.0000 -6.6004 -20.3015 10.0365 9.5412 -0.0000 -0.0000 8.5088 4.3383 4.0425 -4.5021 0.0000 -0.0000 -8.4764 19.8592 -7.5374 14.7773 -0.0000 -0.0000 5.1060 2.2951 1.8940 25.5044 -30.9224 -11.3459 -68.8995 -6.9033 34.9914 12.3437 0.0000 31.9833 -1.0636 -23.0661 -2.7129 33.1476 -0.0000 -26.2537 12.5795 9.4838 22.1629 -32.0748 8.8489 -32.8793 -32.8020 0.0000 -26.9685 0.0256 -0.1341 10.8078 32.8623 0.0000 24.3270 -4.1350 -12.4157 -4.2878
-2.5511 37.0515 2.6331 -2.1284 5.9498 -1.7283 8.4709 -3.9442 0.0416 -2.0507 0.0000 -0.0000 -6.6008 -20.2917 10.0374 9.5214 -0.0000 -0.0000 8.5547 4.2154 4.0477 -4.5493 0.0000 -0.0000 -8.4499 19.9435 -7.5517 14.7891 -0.0000 -0.0000 5.0783 2.2820 1.8376 25.7086 -30.9051 -11.0321 -69.5896 -7.5593 35.2549 13.5289 -0.0000 29.8675 -1.1490 -23.1347 -2.9222 33.1476 -0.0000 -26.2537 12.7179 9.4773 21.9655 -31.8344 8.9882 -33.0715 -34.4597 -0.0000 -28.2122 0.1106 -0.5775 10.8464 32.8623 0.0000 24.3270 -4.0187 -12.4264 -4.1948
-2.5535 37.0516 2.6335 -2.1434 5.9803 -1.7268 8.4858 -3.9733 0.0499 -2.0408 0.0000 -0.0000 -6.6155 -20.3039 10.0503 9.5669 -0.0000 -0.0000 8.5701 4.1481 4.0605 -4.5495 0.0000 -0.0000 -8.4435 19.9680 -7.5584 14.7537 -0.0000 -0.0000 5.0418 2.2550 1.7844 25.7306 -30.8118 -10.8273 -70.0949 -8.2744 35.5207 14.8014 0.0000 27.5855 -1.2416 -23.0233 -3.1717 33.1476 -0.0000 -26.2537 12.8996 9.4747 21.7346 -31.5699 9.0947 -33.2661 -36.2035 0.0000 -29.3018 0.1884 -0.9824 10.8540 32.8623 0.0000 24.3270 -3.8852 -12.3986 -4.0871
